<svg width="284" height="4" fill="none" xmlns="http://www.w3.org/2000/svg"><path fill-rule="evenodd" clip-rule="evenodd" d="M4 2a2 2 0 11-4 0 2 2 0 014 0zm280 0a2 2 0 11-4 0 2 2 0 014 0zm-19 2a2 2 0 100-4 2 2 0 000 4zm-33-2a2 2 0 11-4 0 2 2 0 014 0zm-37 2a2 2 0 100-4 2 2 0 000 4zm-33-2a2 2 0 11-4 0 2 2 0 014 0zm-20 2a2 2 0 100-4 2 2 0 000 4zm-15-2a2 2 0 11-4 0 2 2 0 014 0zm120 2a2 2 0 100-4 2 2 0 000 4zm-33-2a2 2 0 11-4 0 2 2 0 014 0zm-37 2a2 2 0 100-4 2 2 0 000 4zm-68-2a2 2 0 11-4 0 2 2 0 014 0zM90 4a2 2 0 100-4 2 2 0 000 4zM74 2a2 2 0 11-4 0 2 2 0 014 0zM55 4a2 2 0 100-4 2 2 0 000 4zM39 2a2 2 0 11-4 0 2 2 0 014 0zM20 4a2 2 0 100-4 2 2 0 000 4z" fill="#495DCF" fill-opacity=".2"/></svg>